HIERARCHY
ROOT Hips
{
	OFFSET 0.000000 0.000000 0.000000
	CHANNELS 6 Xposition Yposition Zposition Xrotation Yrotation Zrotation
	JOINT LeftUpLeg_virtual
	{
		OFFSET 0.000000 0.000000 0.000000
		CHANNELS 3 Xrotation Yrotation Zrotation
		JOINT LeftUpLeg
		{
			OFFSET 15.427100 -6.655098 0.678600
			CHANNELS 3 Xrotation Yrotation Zrotation
			JOINT LeftLeg
			{
				OFFSET 4.081073 -39.591068 13.024000
				CHANNELS 3 Xrotation Yrotation Zrotation
				JOINT LeftFoot
				{
					OFFSET -4.081074 -37.707932 -15.979700
					CHANNELS 3 Xrotation Yrotation Zrotation
					JOINT LeftToeBase
					{
						OFFSET 5.346399 -15.068900 20.645000
						CHANNELS 3 Xrotation Yrotation Zrotation
						JOINT LeftToe_End
						{
							OFFSET 2.754700 0.931300 11.300900
							CHANNELS 3 Xrotation Yrotation Zrotation
							End Site
							{
								OFFSET 0 0 0
							}
						}
					}
				}
			}
		}
	}
	JOINT RightUpLeg_virtual
	{
		OFFSET 0.000000 0.000000 0.000000
		CHANNELS 3 Xrotation Yrotation Zrotation
		JOINT RightUpLeg
		{
			OFFSET -15.569500 -6.655098 0.678600
			CHANNELS 3 Xrotation Yrotation Zrotation
			JOINT RightLeg
			{
				OFFSET -4.081825 -39.591045 13.023800
				CHANNELS 3 Xrotation Yrotation Zrotation
				JOINT RightFoot
				{
					OFFSET 4.081824 -37.707954 -15.979600
					CHANNELS 3 Xrotation Yrotation Zrotation
					JOINT RightToeBase
					{
						OFFSET -5.346400 -15.068900 20.645000
						CHANNELS 3 Xrotation Yrotation Zrotation
						JOINT RightToe_End
						{
							OFFSET -2.754700 0.931300 11.300900
							CHANNELS 3 Xrotation Yrotation Zrotation
							End Site
							{
								OFFSET 0 0 0
							}
						}
					}
				}
			}
		}
	}
	JOINT Spine_virtual
	{
		OFFSET 0.000000 0.000000 0.000000
		CHANNELS 3 Xrotation Yrotation Zrotation
		JOINT Spine
		{
			OFFSET -0.279200 12.230698 -2.892100
			CHANNELS 3 Xrotation Yrotation Zrotation
			JOINT Spine1
			{
				OFFSET -0.232667 10.192268 -1.242267
				CHANNELS 3 Xrotation Yrotation Zrotation
				JOINT Spine1_split
				{
					OFFSET -0.232667 10.192268 -1.242267
					CHANNELS 3 Xrotation Yrotation Zrotation
					JOINT Spine2
					{
						OFFSET -0.232667 10.192268 -1.242267
						CHANNELS 3 Xrotation Yrotation Zrotation
						JOINT Neck_virtual
						{
							OFFSET 0.000000 0.000000 0.000000
							CHANNELS 3 Xrotation Yrotation Zrotation
							JOINT Neck
							{
								OFFSET -0.418800 17.814194 8.416900
								CHANNELS 3 Xrotation Yrotation Zrotation
								JOINT Head
								{
									OFFSET 0.000000 7.031097 3.806800
									CHANNELS 3 Xrotation Yrotation Zrotation
									JOINT HeadTop_End
									{
										OFFSET 0.000000 24.646606 12.978600
										CHANNELS 3 Xrotation Yrotation Zrotation
										End Site
										{
											OFFSET 0 0 0
										}
									}
								}
							}
						}
						JOINT LeftShoulder_virtual
						{
							OFFSET 0.000000 0.000000 0.000000
							CHANNELS 3 Xrotation Yrotation Zrotation
							JOINT LeftShoulder
							{
								OFFSET 8.476499 7.247704 -3.868750
								CHANNELS 3 Xrotation Yrotation Zrotation
								JOINT LeftShoulder_split
								{
									OFFSET 8.476499 7.247704 -3.868750
									CHANNELS 3 Xrotation Yrotation Zrotation
									JOINT LeftArm
									{
										OFFSET 9.308998 -2.777710 0.208600
										CHANNELS 3 Xrotation Yrotation Zrotation
										JOINT LeftForeArm
										{
											OFFSET 29.972298 0.000000 0.000000
											CHANNELS 3 Xrotation Yrotation Zrotation
											JOINT LeftHand
											{
												OFFSET 26.026505 0.000000 0.000000
												CHANNELS 3 Xrotation Yrotation Zrotation
												End Site
												{
													OFFSET 0 0 0
												}
											}
										}
									}
								}
							}
						}
						JOINT RightShoulder_virtual
						{
							OFFSET 0.000000 0.000000 0.000000
							CHANNELS 3 Xrotation Yrotation Zrotation
							JOINT RightShoulder
							{
								OFFSET -7.570500 7.247704 -3.868750
								CHANNELS 3 Xrotation Yrotation Zrotation
								JOINT RightShoulder_split
								{
									OFFSET -7.570500 7.247704 -3.868750
									CHANNELS 3 Xrotation Yrotation Zrotation
									JOINT RightArm
									{
										OFFSET -9.308998 -2.777710 0.208500
										CHANNELS 3 Xrotation Yrotation Zrotation
										JOINT RightForeArm
										{
											OFFSET -29.972300 0.000000 0.000000
											CHANNELS 3 Xrotation Yrotation Zrotation
											JOINT RightHand
											{
												OFFSET -26.026505 0.000000 0.000000
												CHANNELS 3 Xrotation Yrotation Zrotation
												End Site
												{
													OFFSET 0 0 0
												}
											}
										}
									}
								}
							}
						}
					}
				}
			}
		}
	}
}
MOTION
Frames: 10
Frame Time: 0.03333333
-0.609729 90.172012 -0.974091 0.000000 0.000000 0.000000 -1.905921 -0.394134 -0.388968 -7.992517 4.083349 10.846152 21.064582 4.465906 2.133373 -12.401661 2.836724 -13.620686 2.211429 0.355463 -1.599356 0.000000 0.000000 0.000000 -1.673050 0.209855 -0.364260 -7.162597 2.067887 -4.543063 21.743491 -0.189016 -1.649508 -10.964572 -0.618403 6.580449 3.602369 0.254178 0.493684 0.000000 0.000000 0.000000 -1.840347 -1.714907 -0.651912 0.847723 -0.736126 0.326583 -1.121527 -0.261099 0.583556 1.034828 0.161058 0.010518 0.000000 0.000000 0.000000 -1.551672 -0.000795 0.579588 -0.524338 0.624471 -1.109688 4.325326 -1.891304 1.985803 0.000000 0.000000 0.000000 -1.631110 0.163262 0.281445 1.409157 -10.819418 -10.396726 -2.761122 0.344019 -1.749204 20.727864 -21.577186 -65.609745 -1.097672 -19.795654 0.891205 0.000000 0.000000 0.000000 -1.133486 0.162654 0.540773 1.618946 5.413869 10.796808 -0.502433 3.086413 -1.965332 5.995824 23.579526 66.564271 0.593916 16.158079 0.654802 0.000000 0.000000 0.000000 
-0.385862 90.315384 -0.999470 0.000000 0.000000 0.000000 -1.876891 -0.412065 -0.386292 -7.898032 3.847715 10.839482 20.984698 4.614010 2.124722 -12.229855 2.975802 -13.393540 2.061484 0.391813 -1.627016 0.000000 0.000000 0.000000 -1.642290 0.122093 -0.377025 -6.847371 1.962462 -4.592661 21.447938 -0.237252 -1.759112 -10.736759 -0.654543 6.184890 3.221819 0.209854 0.605275 0.000000 0.000000 0.000000 -1.718177 -1.810902 -0.721631 0.709466 -0.701249 0.381463 -1.082037 -0.260180 0.586087 1.115744 0.309617 0.088782 0.000000 0.000000 0.000000 -1.563141 -0.014295 0.592392 -0.568018 0.678564 -1.082257 4.257737 -1.947320 1.908518 0.000000 0.000000 0.000000 -1.623880 0.174525 0.284911 1.411623 -10.880144 -10.507423 -2.740329 0.368673 -1.747106 20.696515 -21.678139 -65.661477 -1.091679 -19.837941 0.781780 0.000000 0.000000 0.000000 -1.110470 0.165667 0.535911 1.634972 5.575026 10.850690 -0.420560 3.216567 -2.001461 6.148851 23.701595 66.381318 0.650016 16.061593 0.661318 0.000000 0.000000 0.000000 
-0.190621 90.450996 -1.024357 0.000000 0.000000 0.000000 -1.950908 -0.534247 -0.425973 -7.871363 3.771321 10.837255 20.914167 4.913411 2.169906 -11.985191 3.001369 -13.042273 1.917704 0.451858 -1.586822 0.000000 0.000000 0.000000 -1.611673 0.048047 -0.461234 -6.481502 1.895191 -4.571150 21.213301 -0.279646 -1.947966 -11.065810 -0.646255 5.576875 3.041349 0.213587 0.612215 0.000000 0.000000 0.000000 -1.566499 -1.953219 -0.831097 0.647981 -0.628950 0.503978 -1.003841 -0.250509 0.565416 1.165792 0.331850 0.085033 0.000000 0.000000 0.000000 -1.540601 -0.027110 0.578733 -0.586892 0.787742 -1.112400 4.009071 -2.002273 1.915057 0.000000 0.000000 0.000000 -1.580641 0.180743 0.261509 1.408895 -10.985840 -10.623546 -2.764808 0.600801 -1.713503 20.580687 -21.688216 -65.722682 -1.054226 -20.006189 0.668454 0.000000 0.000000 0.000000 -1.057752 0.159298 0.500119 1.682927 5.740508 10.878402 -0.278888 3.349243 -2.043152 6.425556 24.008006 65.963624 0.729068 16.161548 0.642946 0.000000 0.000000 0.000000 
-0.023797 90.482742 -1.082359 0.000000 0.000000 0.000000 -2.051105 -0.777712 -0.498729 -7.911184 3.900388 10.785353 20.894913 5.349598 2.268421 -11.817921 2.947136 -12.647962 1.813805 0.527341 -1.474173 0.000000 0.000000 0.000000 -1.531790 -0.038316 -0.559750 -6.314084 1.836151 -4.546506 21.203706 -0.309478 -2.086821 -11.636444 -0.619531 4.947106 2.931738 0.238650 0.517631 0.000000 0.000000 0.000000 -1.403161 -2.154236 -0.931666 0.670619 -0.543718 0.652123 -0.883556 -0.224942 0.527610 1.112710 0.275651 -0.019530 0.000000 0.000000 0.000000 -1.473917 -0.030044 0.546640 -0.595614 0.920359 -1.179126 3.570789 -2.059620 2.025813 0.000000 0.000000 0.000000 -1.503317 0.190810 0.221157 1.396925 -11.113783 -10.724502 -2.871321 0.887826 -1.656125 20.440352 -21.691545 -65.662235 -1.004574 -20.256502 0.538521 0.000000 0.000000 0.000000 -0.981274 0.150525 0.439953 1.756255 5.904558 10.865047 -0.071259 3.457110 -2.063307 6.708717 24.461011 65.390442 0.809450 16.415089 0.611495 0.000000 0.000000 0.000000 
0.141844 90.415649 -1.172546 0.000000 0.000000 0.000000 -2.059879 -1.153573 -0.587702 -8.135146 4.163069 10.679267 20.989687 5.902401 2.416188 -11.840549 2.866538 -12.305090 1.753540 0.596052 -1.276091 0.000000 0.000000 0.000000 -1.364668 -0.222915 -0.661190 -6.501310 1.740459 -4.541999 21.248061 -0.192264 -2.131727 -12.042456 -0.598221 4.733906 2.236593 0.246312 0.310744 0.000000 0.000000 0.000000 -1.190343 -2.380682 -1.036762 0.756486 -0.468877 0.778786 -0.718612 -0.188306 0.480083 0.998305 0.137717 -0.088088 0.000000 0.000000 0.000000 -1.352295 -0.013903 0.505419 -0.618149 1.031956 -1.245624 2.942082 -2.127364 2.276749 0.000000 0.000000 0.000000 -1.382311 0.218567 0.177845 1.374513 -11.268865 -10.787116 -2.956992 1.070496 -1.769526 20.294906 -21.775119 -65.408514 -0.947152 -20.607444 0.394328 0.000000 0.000000 0.000000 -0.874662 0.149635 0.374219 1.844012 6.094113 10.823496 0.154038 3.522142 -2.107279 6.885446 25.036301 64.763895 0.856804 16.766653 0.575054 0.000000 0.000000 0.000000 
0.289005 90.292061 -1.267467 0.000000 0.000000 0.000000 -1.888802 -1.576543 -0.700220 -8.594400 4.422679 10.589020 21.269045 6.499686 2.595200 -12.009119 2.786470 -12.170405 1.640805 0.635605 -0.970356 0.000000 0.000000 0.000000 -1.080027 -0.553456 -0.779441 -7.103607 1.668070 -4.503578 21.242353 0.071254 -2.085196 -12.129216 -0.599947 5.036657 1.118072 0.218827 0.064346 0.000000 0.000000 0.000000 -0.910501 -2.625977 -1.224488 0.877633 -0.425982 0.853922 -0.519546 -0.140519 0.426324 0.918755 -0.000673 -0.014001 0.000000 0.000000 0.000000 -1.165287 0.027802 0.461764 -0.671245 1.098581 -1.292107 2.130215 -2.255165 2.684136 0.000000 0.000000 0.000000 -1.220044 0.267763 0.141580 1.340332 -11.469582 -10.799235 -2.919409 1.081330 -1.994941 20.101230 -21.916426 -64.949088 -0.882385 -21.031629 0.246100 0.000000 0.000000 0.000000 -0.733418 0.168238 0.311456 1.928295 6.355579 10.759302 0.386458 3.575212 -2.153289 6.892963 25.731814 64.161943 0.854721 17.146529 0.546189 0.000000 0.000000 0.000000 
0.412018 90.161484 -1.505539 0.000000 0.000000 0.000000 -1.522442 -2.168641 -0.885662 -9.273484 4.523567 10.642235 21.827340 7.124009 2.805275 -12.215121 2.807449 -12.357522 1.460521 0.628170 -0.585109 0.000000 0.000000 0.000000 -0.688690 -1.093682 -0.964309 -8.089920 1.629345 -4.395972 21.183321 0.382879 -1.955206 -11.881894 -0.645495 5.598236 0.208505 0.161289 -0.088746 0.000000 0.000000 0.000000 -0.498024 -2.915466 -1.511776 1.014057 -0.403097 0.845122 -0.279994 -0.082918 0.370316 0.913074 -0.059234 0.095813 0.000000 0.000000 0.000000 -0.907789 0.087225 0.412833 -0.761314 1.081922 -1.288675 1.175585 -2.492213 3.274501 0.000000 0.000000 0.000000 -1.011746 0.327822 0.106990 1.298497 -11.752315 -10.754420 -2.704962 0.935475 -2.177251 19.650072 -22.003063 -64.359623 -0.777569 -21.487415 0.128352 0.000000 0.000000 0.000000 -0.546256 0.203957 0.256225 2.002685 6.716808 10.700362 0.593617 3.571643 -2.173847 6.716658 26.559356 63.641005 0.806851 17.516947 0.518733 0.000000 0.000000 0.000000 
0.501992 90.043793 -1.957348 0.000000 0.000000 0.000000 -1.010102 -2.851152 -1.192032 -10.222193 4.327124 10.987273 22.719738 7.774384 2.997507 -12.470080 3.028182 -12.849578 1.259545 0.575670 -0.171947 0.000000 0.000000 0.000000 -0.250192 -1.898246 -1.288735 -9.441523 1.674666 -4.113502 21.123379 0.634455 -1.798662 -11.533170 -0.754467 6.234052 0.098132 0.081272 -0.045511 0.000000 0.000000 0.000000 0.055729 -3.396787 -1.925350 1.189846 -0.378060 0.744627 -0.004792 -0.026393 0.310963 0.975507 -0.075844 0.168025 0.000000 0.000000 0.000000 -0.586059 0.154924 0.342295 -0.856008 0.988795 -1.190210 0.127842 -2.848088 4.052693 0.000000 0.000000 0.000000 -0.748049 0.392820 0.057855 1.260237 -12.144792 -10.655946 -2.425198 0.820441 -2.311984 18.773062 -21.811101 -63.743417 -0.646358 -21.960081 0.050923 0.000000 0.000000 0.000000 -0.301026 0.253317 0.198553 2.060944 7.193387 10.646927 0.761637 3.584542 -2.205533 6.387634 27.536999 63.179065 0.717627 17.972014 0.497729 0.000000 0.000000 0.000000 
0.536174 89.804581 -2.497799 0.000000 0.000000 0.000000 -0.436245 -3.713897 -1.682362 -11.385756 3.773404 11.747330 24.040000 8.370114 3.114282 -12.781529 3.489156 -13.675502 1.091890 0.490541 0.201691 0.000000 0.000000 0.000000 0.210153 -2.971916 -1.795608 -11.173720 1.884775 -3.523388 21.461805 0.790320 -1.627469 -11.234988 -0.848114 6.868163 0.637239 0.000488 0.201411 0.000000 0.000000 0.000000 0.692848 -4.205964 -2.450427 1.440565 -0.344406 0.555467 0.307881 0.031915 0.236044 1.066409 -0.112008 0.203946 0.000000 0.000000 0.000000 -0.220046 0.222572 0.233998 -0.912358 0.824307 -0.967527 -0.942329 -3.303070 4.992677 0.000000 0.000000 0.000000 -0.430363 0.448929 -0.024202 1.234351 -12.643659 -10.534565 -2.226422 0.831062 -2.415157 17.559071 -21.237208 -63.141820 -0.506091 -22.563755 0.007701 0.000000 0.000000 0.000000 -0.000002 0.304560 0.113928 2.105114 7.798368 10.605720 0.887261 3.614943 -2.261414 5.957351 28.632083 62.664739 0.617245 18.600231 0.483407 0.000000 0.000000 0.000000 
0.470586 89.312881 -3.064819 0.000000 0.000000 0.000000 0.169517 -4.800580 -2.354919 -12.687071 2.982011 12.938535 25.878062 8.896020 3.066690 -13.339424 4.232082 -14.665926 1.078339 0.391207 0.451072 0.000000 0.000000 0.000000 0.609908 -4.291885 -2.478382 -13.253941 2.282610 -2.586315 22.476097 0.916789 -1.500977 -11.103369 -0.789035 7.664714 1.107531 -0.062731 0.504552 0.000000 0.000000 0.000000 1.317039 -5.399031 -3.063781 1.799984 -0.313941 0.289724 0.650838 0.082225 0.120317 1.120939 -0.183950 0.170203 0.000000 0.000000 0.000000 0.162978 0.283019 0.080497 -0.875963 0.630046 -0.620011 -1.926896 -3.823178 6.056607 0.000000 0.000000 0.000000 -0.082448 0.490100 -0.149772 1.222346 -13.213844 -10.391003 -2.139828 0.847615 -2.453761 16.280309 -20.260937 -62.602768 -0.378954 -23.620777 -0.003643 0.000000 0.000000 0.000000 0.341623 0.340633 -0.012373 2.140893 8.512017 10.581976 1.006873 3.669658 -2.360797 5.445503 29.731656 62.027099 0.535917 19.444761 0.464048 0.000000 0.000000 0.000000 
